<svg version="1.1" xmlns="http://www.w3.org/2000/svg" width="512" height="512" viewBox="0 0 512 512"><title>envelope</title><path d="M512 202.857v226.857c0 25.143-20.572 45.714-45.714 45.714h-420.572c-25.143 0-45.715-20.572-45.715-45.714v-226.857c8.572 9.429 18.285 17.715 28.857 24.857 47.428 32.286 95.428 64.572 142 98.572 24 17.714 53.714 39.428 84.857 39.428h0.571c31.143 0 60.857-21.714 84.857-39.428 46.572-33.714 94.572-66.286 142.286-98.572 10.286-7.143 20-15.428 28.572-24.857zM512 118.857c0 32-23.714 60.857-48.857 78.285-44.572 30.857-89.428 61.714-133.714 92.857-18.572 12.857-50 39.143-73.143 39.143h-0.571c-23.143 0-54.571-26.286-73.143-39.143-44.286-31.143-89.143-62-133.429-92.857-20.285-13.714-49.143-46-49.143-72 0-28 15.143-52 45.715-52h420.572c24.857 0 45.715 20.572 45.715 45.715z"></path></svg>