<svg version="1.1" xmlns="http://www.w3.org/2000/svg" width="512" height="512" viewBox="0 0 512 512"><title>envelope-o</title><path d="M475.428 429.714v-219.429c-6 6.857-12.572 13.143-19.714 18.857-40.857 31.428-82 63.428-121.714 96.572-21.428 18-48 40-77.714 40h-0.571c-29.715 0-56.285-22-77.715-40-39.714-33.143-80.857-65.143-121.715-96.572-7.143-5.714-13.715-12-19.715-18.857v219.429c0 4.857 4.285 9.143 9.143 9.143h420.572c4.857 0 9.143-4.286 9.143-9.143zM475.428 129.429c0-7.143 1.714-19.715-9.143-19.715h-420.572c-4.857 0-9.143 4.285-9.143 9.143 0 32.572 16.285 60.857 42 81.143 38.285 30 76.571 60.286 114.571 90.572 15.143 12.286 42.572 38.572 62.572 38.572h0.572c20 0 47.428-26.286 62.572-38.572 38-30.286 76.286-60.572 114.572-90.572 18.572-14.572 42-46.286 42-70.572zM512 118.857v310.857c0 25.143-20.572 45.714-45.714 45.714h-420.572c-25.143 0-45.715-20.572-45.715-45.714v-310.857c0-25.143 20.572-45.715 45.715-45.715h420.572c25.143 0 45.714 20.572 45.714 45.715z"></path></svg>