<svg version="1.1" xmlns="http://www.w3.org/2000/svg" width="402" height="512" viewBox="0 0 402 512"><title>phone</title><path d="M402.286 354.286c0 10.286-4.572 30.286-8.857 39.714-6 14-22 23.143-34.857 30.286-16.857 9.143-34 14.572-53.143 14.572-26.572 0-50.572-10.857-74.857-19.714-17.429-6.286-34.285-14-50-23.714-48.571-30-107.143-88.572-137.143-137.143-9.715-15.714-17.428-32.572-23.715-50-8.857-24.286-19.715-48.286-19.715-74.857 0-19.143 5.428-36.285 14.572-53.143 7.143-12.857 16.285-28.857 30.285-34.857 9.428-4.285 29.428-8.857 39.715-8.857 2 0 4 0 6 0.857 6 2 12.285 16 15.143 21.715 9.143 16.285 18 32.857 27.428 48.857 4.572 7.428 13.143 16.572 13.143 25.428 0 17.429-51.715 42.857-51.715 58.285 0 7.714 7.143 17.714 11.143 24.572 28.857 52 64.857 88 116.857 116.857 6.857 4 16.857 11.143 24.572 11.143 15.428 0 40.857-51.714 58.286-51.714 8.857 0 18 8.572 25.428 13.143 16 9.428 32.572 18.286 48.857 27.428 5.714 2.857 19.714 9.143 21.714 15.143 0.857 2 0.857 4 0.857 6z"></path></svg>